<mxfile host="app.diagrams.net" agent="Mozilla/5.0 (Windows NT 10.0; Win64; x64) AppleWebKit/537.36 (KHTML, like Gecko) Chrome/135.0.0.0 Safari/537.36" version="26.2.12">
  <diagram name="第 1 页" id="BEDw1EXFjeKoyb_lrrtx">
    <mxGraphModel dx="1190" dy="619" grid="1" gridSize="10" guides="1" tooltips="1" connect="1" arrows="1" fold="1" page="0" pageScale="1" pageWidth="827" pageHeight="1169" math="0" shadow="0">
      <root>
        <mxCell id="0" />
        <mxCell id="1" parent="0" />
        <mxCell id="e31xRG3DGiO9P8SCMN_P-4" style="edgeStyle=orthogonalEdgeStyle;rounded=0;orthogonalLoop=1;jettySize=auto;html=1;entryX=0.5;entryY=0;entryDx=0;entryDy=0;" parent="1" source="e31xRG3DGiO9P8SCMN_P-1" target="e31xRG3DGiO9P8SCMN_P-2" edge="1">
          <mxGeometry relative="1" as="geometry" />
        </mxCell>
        <mxCell id="e31xRG3DGiO9P8SCMN_P-1" value="根據game_state&lt;br&gt;處理玩家動作" style="rounded=0;whiteSpace=wrap;html=1;" parent="1" vertex="1">
          <mxGeometry x="234" y="120" width="120" height="60" as="geometry" />
        </mxCell>
        <mxCell id="e31xRG3DGiO9P8SCMN_P-11" style="edgeStyle=orthogonalEdgeStyle;rounded=0;orthogonalLoop=1;jettySize=auto;html=1;entryX=0.5;entryY=0;entryDx=0;entryDy=0;" parent="1" source="e31xRG3DGiO9P8SCMN_P-2" target="e31xRG3DGiO9P8SCMN_P-10" edge="1">
          <mxGeometry relative="1" as="geometry" />
        </mxCell>
        <mxCell id="e31xRG3DGiO9P8SCMN_P-33" style="edgeStyle=orthogonalEdgeStyle;rounded=0;orthogonalLoop=1;jettySize=auto;html=1;exitX=0;exitY=0.5;exitDx=0;exitDy=0;entryX=0;entryY=0.5;entryDx=0;entryDy=0;" parent="1" source="e31xRG3DGiO9P8SCMN_P-2" target="e31xRG3DGiO9P8SCMN_P-52" edge="1">
          <mxGeometry relative="1" as="geometry">
            <mxPoint x="160" y="250" as="targetPoint" />
            <Array as="points">
              <mxPoint x="190" y="250" />
              <mxPoint x="190" y="840" />
            </Array>
          </mxGeometry>
        </mxCell>
        <mxCell id="e31xRG3DGiO9P8SCMN_P-2" value="是胡嗎" style="rhombus;whiteSpace=wrap;html=1;" parent="1" vertex="1">
          <mxGeometry x="254" y="210" width="80" height="80" as="geometry" />
        </mxCell>
        <mxCell id="e31xRG3DGiO9P8SCMN_P-6" value="yes" style="text;html=1;align=center;verticalAlign=middle;whiteSpace=wrap;rounded=0;" parent="1" vertex="1">
          <mxGeometry x="190" y="220" width="60" height="30" as="geometry" />
        </mxCell>
        <mxCell id="e31xRG3DGiO9P8SCMN_P-8" value="no" style="text;html=1;align=center;verticalAlign=middle;whiteSpace=wrap;rounded=0;" parent="1" vertex="1">
          <mxGeometry x="294" y="290" width="60" height="30" as="geometry" />
        </mxCell>
        <mxCell id="e31xRG3DGiO9P8SCMN_P-13" style="edgeStyle=orthogonalEdgeStyle;rounded=0;orthogonalLoop=1;jettySize=auto;html=1;exitX=1;exitY=0.5;exitDx=0;exitDy=0;entryX=0;entryY=0.5;entryDx=0;entryDy=0;" parent="1" source="e31xRG3DGiO9P8SCMN_P-10" target="e31xRG3DGiO9P8SCMN_P-12" edge="1">
          <mxGeometry relative="1" as="geometry" />
        </mxCell>
        <mxCell id="e31xRG3DGiO9P8SCMN_P-24" style="edgeStyle=orthogonalEdgeStyle;rounded=0;orthogonalLoop=1;jettySize=auto;html=1;exitX=0.5;exitY=1;exitDx=0;exitDy=0;entryX=0.5;entryY=0;entryDx=0;entryDy=0;" parent="1" source="e31xRG3DGiO9P8SCMN_P-10" target="e31xRG3DGiO9P8SCMN_P-21" edge="1">
          <mxGeometry relative="1" as="geometry" />
        </mxCell>
        <mxCell id="e31xRG3DGiO9P8SCMN_P-10" value="是槓嗎" style="rhombus;whiteSpace=wrap;html=1;" parent="1" vertex="1">
          <mxGeometry x="254" y="330" width="80" height="80" as="geometry" />
        </mxCell>
        <mxCell id="e31xRG3DGiO9P8SCMN_P-32" style="edgeStyle=orthogonalEdgeStyle;rounded=0;orthogonalLoop=1;jettySize=auto;html=1;exitX=1;exitY=0.5;exitDx=0;exitDy=0;entryX=0;entryY=0.5;entryDx=0;entryDy=0;" parent="1" source="e31xRG3DGiO9P8SCMN_P-12" target="e31xRG3DGiO9P8SCMN_P-31" edge="1">
          <mxGeometry relative="1" as="geometry">
            <Array as="points">
              <mxPoint x="480" y="370" />
              <mxPoint x="480" y="460" />
            </Array>
          </mxGeometry>
        </mxCell>
        <mxCell id="e31xRG3DGiO9P8SCMN_P-12" value="摸牌" style="rounded=0;whiteSpace=wrap;html=1;" parent="1" vertex="1">
          <mxGeometry x="400" y="350" width="60" height="40" as="geometry" />
        </mxCell>
        <mxCell id="e31xRG3DGiO9P8SCMN_P-14" value="yes" style="text;html=1;align=center;verticalAlign=middle;whiteSpace=wrap;rounded=0;" parent="1" vertex="1">
          <mxGeometry x="334" y="340" width="60" height="30" as="geometry" />
        </mxCell>
        <mxCell id="e31xRG3DGiO9P8SCMN_P-17" value="no" style="text;html=1;align=center;verticalAlign=middle;whiteSpace=wrap;rounded=0;" parent="1" vertex="1">
          <mxGeometry x="294" y="410" width="60" height="30" as="geometry" />
        </mxCell>
        <mxCell id="e31xRG3DGiO9P8SCMN_P-26" style="edgeStyle=orthogonalEdgeStyle;rounded=0;orthogonalLoop=1;jettySize=auto;html=1;exitX=0.5;exitY=1;exitDx=0;exitDy=0;entryX=0.5;entryY=0;entryDx=0;entryDy=0;" parent="1" source="e31xRG3DGiO9P8SCMN_P-21" target="e31xRG3DGiO9P8SCMN_P-25" edge="1">
          <mxGeometry relative="1" as="geometry" />
        </mxCell>
        <mxCell id="e31xRG3DGiO9P8SCMN_P-35" style="edgeStyle=orthogonalEdgeStyle;rounded=0;orthogonalLoop=1;jettySize=auto;html=1;entryX=0;entryY=0.5;entryDx=0;entryDy=0;" parent="1" source="e31xRG3DGiO9P8SCMN_P-21" target="e31xRG3DGiO9P8SCMN_P-31" edge="1">
          <mxGeometry relative="1" as="geometry">
            <Array as="points">
              <mxPoint x="480" y="490" />
              <mxPoint x="480" y="460" />
            </Array>
          </mxGeometry>
        </mxCell>
        <mxCell id="e31xRG3DGiO9P8SCMN_P-21" value="是碰嗎" style="rhombus;whiteSpace=wrap;html=1;" parent="1" vertex="1">
          <mxGeometry x="254" y="450" width="80" height="80" as="geometry" />
        </mxCell>
        <mxCell id="e31xRG3DGiO9P8SCMN_P-28" style="edgeStyle=orthogonalEdgeStyle;rounded=0;orthogonalLoop=1;jettySize=auto;html=1;exitX=0.5;exitY=1;exitDx=0;exitDy=0;entryX=0.5;entryY=0;entryDx=0;entryDy=0;" parent="1" source="e31xRG3DGiO9P8SCMN_P-25" target="e31xRG3DGiO9P8SCMN_P-27" edge="1">
          <mxGeometry relative="1" as="geometry" />
        </mxCell>
        <mxCell id="e31xRG3DGiO9P8SCMN_P-38" style="edgeStyle=orthogonalEdgeStyle;rounded=0;orthogonalLoop=1;jettySize=auto;html=1;entryX=0;entryY=0.5;entryDx=0;entryDy=0;" parent="1" source="e31xRG3DGiO9P8SCMN_P-25" target="e31xRG3DGiO9P8SCMN_P-31" edge="1">
          <mxGeometry relative="1" as="geometry">
            <Array as="points">
              <mxPoint x="480" y="610" />
              <mxPoint x="480" y="460" />
            </Array>
          </mxGeometry>
        </mxCell>
        <mxCell id="e31xRG3DGiO9P8SCMN_P-25" value="是吃嗎" style="rhombus;whiteSpace=wrap;html=1;" parent="1" vertex="1">
          <mxGeometry x="254" y="570" width="80" height="80" as="geometry" />
        </mxCell>
        <mxCell id="e31xRG3DGiO9P8SCMN_P-42" style="edgeStyle=orthogonalEdgeStyle;rounded=0;orthogonalLoop=1;jettySize=auto;html=1;exitX=0.5;exitY=1;exitDx=0;exitDy=0;entryX=0.5;entryY=0;entryDx=0;entryDy=0;" parent="1" source="e31xRG3DGiO9P8SCMN_P-27" target="e31xRG3DGiO9P8SCMN_P-41" edge="1">
          <mxGeometry relative="1" as="geometry" />
        </mxCell>
        <mxCell id="e31xRG3DGiO9P8SCMN_P-46" style="edgeStyle=orthogonalEdgeStyle;rounded=0;orthogonalLoop=1;jettySize=auto;html=1;exitX=1;exitY=0.5;exitDx=0;exitDy=0;entryX=0;entryY=0.5;entryDx=0;entryDy=0;" parent="1" source="e31xRG3DGiO9P8SCMN_P-27" target="e31xRG3DGiO9P8SCMN_P-45" edge="1">
          <mxGeometry relative="1" as="geometry" />
        </mxCell>
        <mxCell id="e31xRG3DGiO9P8SCMN_P-27" value="是捨牌嗎" style="rhombus;whiteSpace=wrap;html=1;" parent="1" vertex="1">
          <mxGeometry x="254" y="680" width="80" height="80" as="geometry" />
        </mxCell>
        <mxCell id="bUjBYYJO5lv3CAKCNxV7-15" style="edgeStyle=orthogonalEdgeStyle;rounded=0;orthogonalLoop=1;jettySize=auto;html=1;entryX=0.5;entryY=1;entryDx=0;entryDy=0;" parent="1" source="e31xRG3DGiO9P8SCMN_P-31" target="bUjBYYJO5lv3CAKCNxV7-8" edge="1">
          <mxGeometry relative="1" as="geometry">
            <Array as="points">
              <mxPoint x="665" y="460" />
            </Array>
          </mxGeometry>
        </mxCell>
        <mxCell id="e31xRG3DGiO9P8SCMN_P-31" value="呼叫AI或詢問玩家&lt;div&gt;得到捨哪張牌&lt;/div&gt;" style="rounded=0;whiteSpace=wrap;html=1;" parent="1" vertex="1">
          <mxGeometry x="520" y="430" width="120" height="60" as="geometry" />
        </mxCell>
        <mxCell id="e31xRG3DGiO9P8SCMN_P-36" value="yes" style="text;html=1;align=center;verticalAlign=middle;whiteSpace=wrap;rounded=0;" parent="1" vertex="1">
          <mxGeometry x="380" y="460" width="60" height="30" as="geometry" />
        </mxCell>
        <mxCell id="e31xRG3DGiO9P8SCMN_P-37" value="no" style="text;html=1;align=center;verticalAlign=middle;whiteSpace=wrap;rounded=0;" parent="1" vertex="1">
          <mxGeometry x="240" y="530" width="60" height="30" as="geometry" />
        </mxCell>
        <mxCell id="e31xRG3DGiO9P8SCMN_P-39" value="yes" style="text;html=1;align=center;verticalAlign=middle;whiteSpace=wrap;rounded=0;" parent="1" vertex="1">
          <mxGeometry x="370" y="580" width="60" height="30" as="geometry" />
        </mxCell>
        <mxCell id="e31xRG3DGiO9P8SCMN_P-40" value="no" style="text;html=1;align=center;verticalAlign=middle;whiteSpace=wrap;rounded=0;" parent="1" vertex="1">
          <mxGeometry x="254" y="650" width="60" height="30" as="geometry" />
        </mxCell>
        <mxCell id="e31xRG3DGiO9P8SCMN_P-41" value="錯誤" style="ellipse;whiteSpace=wrap;html=1;" parent="1" vertex="1">
          <mxGeometry x="262" y="790" width="64" height="40" as="geometry" />
        </mxCell>
        <mxCell id="e31xRG3DGiO9P8SCMN_P-43" value="no" style="text;html=1;align=center;verticalAlign=middle;whiteSpace=wrap;rounded=0;" parent="1" vertex="1">
          <mxGeometry x="294" y="750" width="60" height="30" as="geometry" />
        </mxCell>
        <mxCell id="e31xRG3DGiO9P8SCMN_P-53" style="edgeStyle=orthogonalEdgeStyle;rounded=0;orthogonalLoop=1;jettySize=auto;html=1;exitX=0.5;exitY=1;exitDx=0;exitDy=0;entryX=0.5;entryY=0;entryDx=0;entryDy=0;" parent="1" source="e31xRG3DGiO9P8SCMN_P-45" target="e31xRG3DGiO9P8SCMN_P-52" edge="1">
          <mxGeometry relative="1" as="geometry" />
        </mxCell>
        <mxCell id="bUjBYYJO5lv3CAKCNxV7-11" style="edgeStyle=orthogonalEdgeStyle;rounded=0;orthogonalLoop=1;jettySize=auto;html=1;exitX=1;exitY=0.5;exitDx=0;exitDy=0;entryX=0.5;entryY=1;entryDx=0;entryDy=0;" parent="1" source="e31xRG3DGiO9P8SCMN_P-45" target="bUjBYYJO5lv3CAKCNxV7-8" edge="1">
          <mxGeometry relative="1" as="geometry" />
        </mxCell>
        <mxCell id="e31xRG3DGiO9P8SCMN_P-45" value="呼叫其他AI&lt;div&gt;是否有動作&lt;/div&gt;" style="rhombus;whiteSpace=wrap;html=1;" parent="1" vertex="1">
          <mxGeometry x="380" y="675" width="110" height="90" as="geometry" />
        </mxCell>
        <mxCell id="e31xRG3DGiO9P8SCMN_P-47" value="yes" style="text;html=1;align=center;verticalAlign=middle;whiteSpace=wrap;rounded=0;" parent="1" vertex="1">
          <mxGeometry x="320" y="670" width="74" height="30" as="geometry" />
        </mxCell>
        <mxCell id="e31xRG3DGiO9P8SCMN_P-50" value="yes" style="text;html=1;align=center;verticalAlign=middle;whiteSpace=wrap;rounded=0;" parent="1" vertex="1">
          <mxGeometry x="540" y="680" width="60" height="30" as="geometry" />
        </mxCell>
        <mxCell id="bUjBYYJO5lv3CAKCNxV7-9" style="edgeStyle=orthogonalEdgeStyle;rounded=0;orthogonalLoop=1;jettySize=auto;html=1;entryX=0.5;entryY=1;entryDx=0;entryDy=0;" parent="1" source="e31xRG3DGiO9P8SCMN_P-52" target="bUjBYYJO5lv3CAKCNxV7-8" edge="1">
          <mxGeometry relative="1" as="geometry" />
        </mxCell>
        <mxCell id="e31xRG3DGiO9P8SCMN_P-52" value="為下一位AI或玩家&lt;div&gt;摸牌&lt;span style=&quot;background-color: transparent; color: light-dark(rgb(0, 0, 0), rgb(255, 255, 255));&quot;&gt;並詢問動作&lt;/span&gt;&lt;/div&gt;" style="rounded=0;whiteSpace=wrap;html=1;" parent="1" vertex="1">
          <mxGeometry x="375" y="810" width="120" height="60" as="geometry" />
        </mxCell>
        <mxCell id="bUjBYYJO5lv3CAKCNxV7-14" style="edgeStyle=orthogonalEdgeStyle;rounded=0;orthogonalLoop=1;jettySize=auto;html=1;exitX=0;exitY=0.5;exitDx=0;exitDy=0;entryX=0.5;entryY=0;entryDx=0;entryDy=0;" parent="1" source="bUjBYYJO5lv3CAKCNxV7-6" target="e31xRG3DGiO9P8SCMN_P-1" edge="1">
          <mxGeometry relative="1" as="geometry" />
        </mxCell>
        <mxCell id="bUjBYYJO5lv3CAKCNxV7-6" value="暫停控制flag" style="rounded=0;whiteSpace=wrap;html=1;" parent="1" vertex="1">
          <mxGeometry x="440" y="70" width="90" height="50" as="geometry" />
        </mxCell>
        <mxCell id="bUjBYYJO5lv3CAKCNxV7-7" value="no" style="text;html=1;align=center;verticalAlign=middle;whiteSpace=wrap;rounded=0;" parent="1" vertex="1">
          <mxGeometry x="435" y="765" width="60" height="30" as="geometry" />
        </mxCell>
        <mxCell id="bUjBYYJO5lv3CAKCNxV7-13" style="edgeStyle=orthogonalEdgeStyle;rounded=0;orthogonalLoop=1;jettySize=auto;html=1;entryX=1;entryY=0.5;entryDx=0;entryDy=0;" parent="1" source="bUjBYYJO5lv3CAKCNxV7-8" target="bUjBYYJO5lv3CAKCNxV7-6" edge="1">
          <mxGeometry relative="1" as="geometry">
            <Array as="points">
              <mxPoint x="665" y="95" />
            </Array>
          </mxGeometry>
        </mxCell>
        <mxCell id="bUjBYYJO5lv3CAKCNxV7-8" value="設置game_state&lt;div&gt;為對應的動作&lt;/div&gt;" style="rounded=0;whiteSpace=wrap;html=1;" parent="1" vertex="1">
          <mxGeometry x="610" y="210" width="110" height="60" as="geometry" />
        </mxCell>
      </root>
    </mxGraphModel>
  </diagram>
</mxfile>
